<svg width="56" height="23" viewBox="0 0 56 23" fill="none" xmlns="http://www.w3.org/2000/svg">
<g filter="url(#filter0_d_89_10)">
<path d="M20.4603 5.277H26.8843V6.19H20.4603V5.277ZM19.3273 8.511H28.4353V9.435H19.3273V8.511ZM26.1693 5.277H27.3023V5.937C27.3023 6.663 27.3023 7.587 27.0383 8.786L25.9053 8.676C26.1693 7.488 26.1693 6.641 26.1693 5.937V5.277ZM20.3723 10.293H27.3023V12.966H21.5383V14.198H20.3833V12.097H26.1583V11.195H20.3723V10.293ZM20.3833 13.912H27.5663V14.814H20.3833V13.912ZM31.4154 5.629H32.3064V6.839C32.3064 8.423 31.5804 10.062 30.0624 10.744L29.4684 9.886C30.7774 9.292 31.4154 7.983 31.4154 6.839V5.629ZM31.6794 5.629H32.5704V6.839C32.5704 7.939 33.1424 9.325 34.4734 9.952L33.9784 10.876C32.3394 10.161 31.6794 8.379 31.6794 6.839V5.629ZM35.3864 5.629H36.2664V6.839C36.2664 8.423 35.6064 10.172 33.9784 10.876L33.4834 9.952C34.8144 9.336 35.3864 7.983 35.3864 6.839V5.629ZM35.6614 5.629H36.5524V6.839C36.5524 8.06 37.1684 9.314 38.4994 9.886L37.8944 10.744C36.3654 10.084 35.6614 8.511 35.6614 6.839V5.629ZM29.4354 12.669H38.5434V13.615H29.4354V12.669ZM46.7046 4.859H47.8596V14.913H46.7046V4.859ZM43.7566 5.926H44.8896C44.8896 8.907 43.7016 11.437 40.2476 13.12L39.6426 12.196C42.5356 10.799 43.7566 8.808 43.7566 6.124V5.926ZM40.1376 5.926H44.2736V6.85H40.1376V5.926Z" fill="white"/>
</g>
<g filter="url(#filter1_d_89_10)">
<path d="M14 10.1429H9.71429V14H8.28571V10.1429H4V8.85714H8.28571V5H9.71429V8.85714H14V10.1429Z" fill="white"/>
</g>
<defs>
<filter id="filter0_d_89_10" x="15.3273" y="4.85899" width="36.5323" height="18.054" filterUnits="userSpaceOnUse" color-interpolation-filters="sRGB">
<feFlood flood-opacity="0" result="BackgroundImageFix"/>
<feColorMatrix in="SourceAlpha" type="matrix" values="0 0 0 0 0 0 0 0 0 0 0 0 0 0 0 0 0 0 127 0" result="hardAlpha"/>
<feOffset dy="4"/>
<feGaussianBlur stdDeviation="2"/>
<feComposite in2="hardAlpha" operator="out"/>
<feColorMatrix type="matrix" values="0 0 0 0 0 0 0 0 0 0 0 0 0 0 0 0 0 0 0.25 0"/>
<feBlend mode="normal" in2="BackgroundImageFix" result="effect1_dropShadow_89_10"/>
<feBlend mode="normal" in="SourceGraphic" in2="effect1_dropShadow_89_10" result="shape"/>
</filter>
<filter id="filter1_d_89_10" x="0" y="5" width="18" height="17" filterUnits="userSpaceOnUse" color-interpolation-filters="sRGB">
<feFlood flood-opacity="0" result="BackgroundImageFix"/>
<feColorMatrix in="SourceAlpha" type="matrix" values="0 0 0 0 0 0 0 0 0 0 0 0 0 0 0 0 0 0 127 0" result="hardAlpha"/>
<feOffset dy="4"/>
<feGaussianBlur stdDeviation="2"/>
<feComposite in2="hardAlpha" operator="out"/>
<feColorMatrix type="matrix" values="0 0 0 0 0 0 0 0 0 0 0 0 0 0 0 0 0 0 0.25 0"/>
<feBlend mode="normal" in2="BackgroundImageFix" result="effect1_dropShadow_89_10"/>
<feBlend mode="normal" in="SourceGraphic" in2="effect1_dropShadow_89_10" result="shape"/>
</filter>
</defs>
</svg>
