<svg width="18" height="18" viewBox="0 0 18 18" fill="none" xmlns="http://www.w3.org/2000/svg">
<path d="M7.55994 1.08002C4.18354 1.08002 1.43994 3.82361 1.43994 7.20002C1.43994 10.5764 4.18354 13.32 7.55994 13.32C8.89588 13.32 10.1306 12.8897 11.1374 12.1613L15.8737 16.8863L16.8862 15.8738L12.2062 11.1825C13.1259 10.111 13.6799 8.72017 13.6799 7.20002C13.6799 3.82361 10.9363 1.08002 7.55994 1.08002ZM7.55994 1.80002C10.5468 1.80002 12.9599 4.21314 12.9599 7.20002C12.9599 10.1869 10.5468 12.6 7.55994 12.6C4.57307 12.6 2.15994 10.1869 2.15994 7.20002C2.15994 4.21314 4.57307 1.80002 7.55994 1.80002Z" fill="black"/>
</svg>
